#!OML:ASF I:\golf\golf\golf 2\Subject 1\2002-09-07\Subject1.ASF
:FULLY-SPECIFIED
:DEGREES
292
root -2.8679 17.2726 -2.46008 69.0861 41.4512 11.5416
lowerback 41.469 6.43659 8.59344
upperback 15.3563 12.1759 11.3323
thorax -3.39472 5.56675 3.15009
lowerneck -11.2925 -10.9033 0.817277
upperneck -6.19272 -15.2026 -3.29318
head -0.450216 -7.8055 -1.55446
rclavicle 1.49486e-013 4.13472e-014
rhumerus 61.8255 -27.5971 -46.6106
rradius 27.9477
rwrist -15.0034
rhand -44.0919 20.349
rfingers 7.12502
rthumb -16.9096 -8.93486
lclavicle 1.49486e-013 4.13472e-014
lhumerus -16.2007 -25.6501 91.8379
lradius 80.5877
lwrist 21.6858
lhand -12.3893 26.3197
lfingers 7.12502
lthumb 13.6818 55.85
rfemur -91.1585 -6.6795 25.1759
rtibia 40.0456
rfoot -6.70558 0.867976
rtoes 18.6803
lfemur -62.9455 -3.54181 -8.02274
ltibia 24.3428
lfoot -8.22867 -13.3908
ltoes -7.79187
293
root -2.8628 17.2759 -2.46294 68.9797 41.5847 11.6311
lowerback 41.779 6.30184 8.8784
upperback 15.299 12.1635 11.3292
thorax -3.48987 5.55841 2.9961
lowerneck -11.1825 -10.9092 0.927861
upperneck -6.26563 -15.2322 -3.36398
head -0.505649 -7.82144 -1.58216
rclavicle 1.90833e-014 2.06736e-014
rhumerus 61.7217 -27.6595 -46.5332
rradius 27.9897
rwrist -15.0527
rhand -44.1269 20.6159
rfingers 7.12502
rthumb -16.9434 -8.66507
lclavicle 1.90833e-014 2.06736e-014
lhumerus -16.2533 -25.726 91.9439
lradius 80.5696
lwrist 21.7288
lhand -12.3403 26.2198
lfingers 7.12502
lthumb 13.7291 55.7468
rfemur -90.951 -6.83 25.2575
rtibia 39.9879
rfoot -6.72538 0.903769
rtoes 18.596
lfemur -62.8698 -3.36118 -8.34953
ltibia 24.4492
lfoot -8.02937 -13.908
ltoes -7.20926
294
root -2.86859 17.2738 -2.45691 68.9988 41.6007 11.4222
lowerback 41.5266 6.48279 8.74961
upperback 15.3153 12.3022 11.4008
thorax -3.44576 5.62058 3.09438
lowerneck -11.1598 -10.9063 0.983824
upperneck -6.19084 -15.2338 -3.46694
head -0.497896 -7.8229 -1.62338
rclavicle 1.27222e-014 5.08889e-014
rhumerus 61.7049 -27.7414 -46.5793
rradius 27.9433
rwrist -14.9727
rhand -44.1582 20.9218
rfingers 7.12502
rthumb -16.9735 -8.35656
lclavicle 1.27222e-014 5.08889e-014
lhumerus -16.3554 -25.8384 92.0703
lradius 80.5718
lwrist 21.6531
lhand -12.2859 26.181
lfingers 7.12502
lthumb 13.7815 55.7046
rfemur -91.0665 -6.63381 25.3676
rtibia 39.9109
rfoot -6.68464 0.887434
rtoes 18.5747
lfemur -63.0439 -2.86229 -8.6112
ltibia 24.5497
lfoot -8.03906 -14.2898
ltoes -7.80498
295
root -2.86331 17.2744 -2.46158 69.0051 41.7198 11.5468
lowerback 41.6667 6.36073 8.99664
upperback 15.2687 12.2716 11.3977
thorax -3.48586 5.60877 2.97693
lowerneck -11.139 -10.9213 1.05144
upperneck -6.16494 -15.2642 -3.54017
head -0.504831 -7.83946 -1.6559
rclavicle 1.59028e-014 -3.18055e-015
rhumerus 61.6099 -27.794 -46.447
rradius 27.9454
rwrist -14.9798
rhand -44.204 21.0635
rfingers 7.12502
rthumb -17.0176 -8.21111
lclavicle 1.59028e-014 -3.18055e-015
lhumerus -16.4054 -25.9439 92.1671
lradius 80.5867
lwrist 21.5876
lhand -12.154 26.2333
lfingers 7.12502
lthumb 13.9086 55.7482
rfemur -90.9745 -6.7831 25.3842
rtibia 39.8682
rfoot -6.6641 0.851351
rtoes 18.8886
lfemur -63.0365 -3.27131 -8.25524
ltibia 24.6051
lfoot -8.07561 -13.8422
ltoes -8.2687
296
root -2.85889 17.2793 -2.46519 68.9992 41.8291 11.6516
lowerback 41.8168 6.23548 9.22132
upperback 15.2412 12.227 11.3802
thorax -3.50816 5.59114 2.86174
lowerneck -10.9579 -10.9268 1.03535
upperneck -6.4365 -15.2828 -3.40885
head -0.609007 -7.84614 -1.5899
rclavicle -4.13472e-014 -8.90555e-014
rhumerus 61.5038 -27.7923 -46.186
rradius 27.962
rwrist -15.0063
rhand -44.2704 20.9
rfingers 7.12502
rthumb -17.0815 -8.36903
lclavicle -4.13472e-014 -8.90555e-014
lhumerus -16.398 -25.9654 92.1999
lradius 80.577
lwrist 21.6056
lhand -12.0261 26.2054
lfingers 7.12502
lthumb 14.0318 55.7117
rfemur -90.8635 -6.92757 25.4613
rtibia 39.8141
rfoot -6.66222 0.882953
rtoes 18.8714
lfemur -63.0346 -3.8477 -7.65102
ltibia 24.6659
lfoot -8.08948 -13.1947
ltoes -8.21515
297
root -2.85364 17.2794 -2.46825 69.0702 41.8744 11.7986
lowerback 41.9288 6.11735 9.36718
upperback 15.1911 12.1593 11.343
thorax -3.5559 5.56125 2.77089
lowerneck -10.7449 -10.9222 0.984985
upperneck -6.69024 -15.2813 -3.28208
head -0.709516 -7.84112 -1.51885
rclavicle -8.90555e-014 -3.33958e-014
rhumerus 61.4789 -27.7617 -46.115
rradius 27.9545
rwrist -14.8467
rhand -44.3918 20.6516
rfingers 7.12502
rthumb -17.1983 -8.60732
lclavicle -8.90555e-014 -3.33958e-014
lhumerus -16.4211 -25.9884 92.2082
lradius 80.5643
lwrist 21.6235
lhand -12.0072 26.0342
lfingers 7.12502
lthumb 14.05 55.5393
rfemur -90.8422 -7.09067 25.4985
rtibia 39.8015
rfoot -6.64798 0.962601
rtoes 18.6448
lfemur -63.0581 -4.19025 -7.41176
ltibia 24.6808
lfoot -8.09088 -12.9086
ltoes -8.40843
298
root -2.86255 17.28 -2.46076 69.0591 41.9144 11.5429
lowerback 41.7224 6.24812 9.21357
upperback 15.2098 12.2293 11.3657
thorax -3.51359 5.59279 2.85254
lowerneck -10.8475 -10.9121 0.998128
upperneck -6.52686 -15.26 -3.33439
head -0.645727 -7.83182 -1.5501
rclavicle -1.08139e-013 -7.79236e-014
rhumerus 61.6651 -27.7068 -46.4298
rradius 27.8793
rwrist -14.5358
rhand -44.4601 20.5513
rfingers 7.12502
rthumb -17.2641 -8.70187
lclavicle -1.08139e-013 -7.79236e-014
lhumerus -16.3811 -25.9594 92.1103
lradius 80.4706
lwrist 21.6453
lhand -12.0816 25.8243
lfingers 7.12502
lthumb 13.9783 55.3343
rfemur -90.9815 -6.86374 25.6471
rtibia 39.7891
rfoot -6.6472 0.988818
rtoes 18.8066
lfemur -63.2019 -3.60799 -7.67709
ltibia 24.7185
lfoot -7.94212 -13.4833
ltoes -8.11109
299
root -2.85473 17.2805 -2.46755 69.0593 42.0398 11.779
lowerback 41.9905 6.00977 9.52946
upperback 15.1578 12.1026 11.3089
thorax -3.56769 5.53877 2.67692
lowerneck -11.0639 -10.9219 1.06416
upperneck -6.28748 -15.2714 -3.45955
head -0.550487 -7.84231 -1.623
rclavicle -6.36111e-014 -4.13472e-014
rhumerus 61.7597 -27.7171 -46.5491
rradius 27.7909
rwrist -14.2845
rhand -44.4333 20.4398
rfingers 7.12502
rthumb -17.2383 -8.81563
lclavicle -6.36111e-014 -4.13472e-014
lhumerus -16.3441 -26.0337 92.0777
lradius 80.4178
lwrist 21.7578
lhand -12.1336 25.7024
lfingers 7.12502
lthumb 13.9282 55.2159
rfemur -90.8569 -7.13173 25.6497
rtibia 39.8363
rfoot -6.7036 0.99559
rtoes 19.0021
lfemur -63.1353 -3.55345 -8.05043
ltibia 24.7472
lfoot -7.72895 -13.9651
ltoes -7.57354
300
root -2.85898 17.2786 -2.45995 69.1262 41.8797 11.6847
lowerback 41.815 6.20767 9.23833
upperback 15.2034 12.1988 11.3292
thorax -3.53285 5.57889 2.80876
lowerneck -11.1578 -10.9225 1.10509
upperneck -6.26212 -15.2781 -3.50853
head -0.53473 -7.84828 -1.65168
rclavicle 6.67916e-014 -7.4743e-014
rhumerus 61.7084 -27.7457 -46.4122
rradius 27.7784
rwrist -14.2412
rhand -44.4468 20.4557
rfingers 7.12502
rthumb -17.2513 -8.7986
lclavicle 6.67916e-014 -7.4743e-014
lhumerus -16.3108 -26.1865 92.0649
lradius 80.4657
lwrist 21.9216
lhand -12.1207 25.7738
lfingers 7.12502
lthumb 13.9407 55.2865
rfemur -90.9847 -6.97433 25.5706
rtibia 39.847
rfoot -6.67743 0.99106
rtoes 19.1676
lfemur -63.2538 -3.24328 -8.33144
ltibia 24.8156
lfoot -7.62209 -14.157
ltoes -7.1909
301
root -2.84647 17.2697 -2.46744 69.3324 41.8121 12.0889
lowerback 41.9427 6.03692 9.40788
upperback 15.1652 12.0762 11.2595
thorax -3.55792 5.52817 2.69455
lowerneck -11.0828 -10.9537 1.10271
upperneck -6.39354 -15.3282 -3.45127
head -0.585427 -7.8729 -1.62395
rclavicle -6.36111e-014 -1.11319e-013
rhumerus 61.5719 -27.8169 -46.1791
rradius 27.8217
rwrist -14.3564
rhand -44.5111 20.6689
rfingers 7.12502
rthumb -17.3132 -8.57999
lclavicle -6.36111e-014 -1.11319e-013
lhumerus -16.2493 -26.3727 92.1185
lradius 80.4512
lwrist 22.0138
lhand -12.1096 25.8854
lfingers 7.12502
lthumb 13.9514 55.3973
rfemur -90.9889 -7.29421 25.3366
rtibia 39.9132
rfoot -6.6618 0.970759
rtoes 19.1755
lfemur -63.2595 -3.78261 -8.29519
ltibia 24.8321
lfoot -7.72147 -13.7687
ltoes -7.66706
302
root -2.86138 17.2719 -2.45289 69.2648 41.7862 11.6401
lowerback 41.6558 6.33289 9.06832
upperback 15.2211 12.2556 11.3074
thorax -3.49731 5.60486 2.85436
lowerneck -11.0716 -10.9291 1.06575
upperneck -6.43318 -15.2865 -3.32186
head -0.585109 -7.851 -1.57605
rclavicle 1.27222e-014 -4.77083e-015
rhumerus 61.7684 -27.8156 -46.4974
rradius 27.8424
rwrist -14.2996
rhand -44.4912 20.6587
rfingers 7.12502
rthumb -17.294 -8.59185
lclavicle 1.27222e-014 -4.77083e-015
lhumerus -16.2325 -26.3128 92.0513
lradius 80.4483
lwrist 21.9947
lhand -12.0496 25.8884
lfingers 7.12502
lthumb 14.0092 55.3963
rfemur -91.1717 -6.85562 25.5131
rtibia 39.9013
rfoot -6.82422 1.05655
rtoes 18.6285
lfemur -63.4284 -3.06934 -8.45549
ltibia 24.8846
lfoot -7.58978 -14.3053
ltoes -7.21516
